<svg version="1.0" xmlns="http://www.w3.org/2000/svg" width="512.000000pt" height="512.000000pt" viewBox="0 0 512.000000 512.000000" preserveAspectRatio="xMidYMid meet">
<g transform="translate(0.000000,512.000000) scale(0.100000,-0.100000)" fill="#000000" stroke="none">
<path d="M2380 4650 c-8 -5 -44 -10 -80 -10 -135 0 -223 -42 -295 -140 -25 -34 -45 -67 -45 -74 0 -6 -27 -49 -60 -96 -33 -47 -60 -91 -60 -99 0 -7 -18 -35 -40 -61 -22 -27 -40 -55 -40 -63 0 -8 -18 -35 -40 -60 -22 -25 -40 -52 -40 -60 0 -8 -20 -37 -45 -64 -25 -28 -45 -57 -45 -65 0 -8 -18 -35 -40 -60 -22 -25 -40 -52 -40 -60 0 -8 -18 -35 -40 -60 -22 -25 -40 -52 -40 -60 0 -8 -18 -35 -40 -60 -22 -25 -40 -52 -40 -60 0 -8 -18 -35 -40 -60 -22 -25 -40 -52 -40 -60 0 -8 -18 -35 -40 -60 -22 -25 -40 -52 -40 -60 0 -8 -18 -35 -40 -60 -22 -25 -40 -52 -40 -60 0 -8 -18 -35 -40 -60 -22 -25 -40 -52 -40 -60 0 -8 -18 -35 -40 -60 -22 -25 -40 -52 -40 -60 0 -8 -18 -35 -40 -60 -22 -25 -40 -52 -40 -60 0 -8 -18 -35 -40 -60 -22 -25 -40 -52 -40 -60 0 -8 -18 -35 -40 -60 -22 -25 -40 -52 -40 -60 0 -8 -18 -35 -40 -60 -22 -25 -40 -52 -40 -60 0 -8 -18 -35 -40 -60 -22 -25 -40 -52 -40 -60 0 -8 -18 -35 -40 -60 -22 -25 -40 -52 -40 -60 0 -8 -18 -35 -40 -60 -22 -25 -40 -52 -40 -60 0 -19 24 -40 45 -40 8 0 35 18 60 40 25 22 52 40 60 40 8 0 35 18 60 40 25 22 52 40 60 40 8 0 35 18 60 40 25 22 52 40 60 40 8 0 35 18 60 40 25 22 52 40 60 40 8 0 35 18 60 40 25 22 52 40 60 40 8 0 35 18 60 40 25 22 52 40 60 40 8 0 35 18 60 40 25 22 52 40 60 40 8 0 35 18 60 40 25 22 52 40 60 40 8 0 35 18 60 40 25 22 52 40 60 40 8 0 35 18 60 40 25 22 52 40 60 40 8 0 35 18 60 40 25 22 52 40 60 40 19 0 40 -24 40 -45 0 -8 -18 -35 -40 -60 -22 -25 -40 -52 -40 -60 0 -8 -18 -35 -40 -60 -22 -25 -40 -52 -40 -60 0 -8 -18 -35 -40 -60 -22 -25 -40 -52 -40 -60 0 -8 -18 -35 -40 -60 l-40 -45 40 0 c22 0 47 5 55 10 8 5 44 10 80 10 135 0 223 42 295 140 25 34 45 67 45 74 0 6 27 49 60 96 33 47 60 91 60 99 0 7 18 35 40 61 22 27 40 55 40 63 0 8 18 35 40 60 22 25 40 52 40 60 0 8 20 37 45 64 25 28 45 57 45 65 0 8 18 35 40 60 22 25 40 52 40 60 0 8 18 35 40 60 22 25 40 52 40 60 0 8 18 35 40 60 22 25 40 52 40 60 0 8 18 35 40 60 22 25 40 52 40 60 0 8 18 35 40 60 22 25 40 52 40 60 0 8 18 35 40 60 22 25 40 52 40 60 0 8 18 35 40 60 22 25 40 52 40 60 0 8 18 35 40 60 22 25 40 52 40 60 0 8 18 35 40 60 22 25 40 52 40 60 0 8 18 35 40 60 22 25 40 52 40 60 0 8 18 35 40 60 22 25 40 52 40 60 0 8 18 35 40 60 22 25 40 52 40 60 0 8 18 35 40 60 22 25 40 52 40 60 0 8 18 35 40 60 22 25 40 52 40 60 0 19 -24 40 -45 40 -8 0 -35 -18 -60 -40 -25 -22 -52 -40 -60 -40 -8 0 -35 -18 -60 -40 -25 -22 -52 -40 -60 -40 -8 0 -35 -18 -60 -40 -25 -22 -52 -40 -60 -40 -8 0 -35 -18 -60 -40 -25 -22 -52 -40 -60 -40 -8 0 -35 -18 -60 -40 -25 -22 -52 -40 -60 -40 -8 0 -35 -18 -60 -40 -25 -22 -52 -40 -60 -40 -8 0 -35 -18 -60 -40 -25 -22 -52 -40 -60 -40 -8 0 -35 -18 -60 -40 -25 -22 -52 -40 -60 -40 -8 0 -35 -18 -60 -40 -25 -22 -52 -40 -60 -40 -8 0 -35 -18 -60 -40 -25 -22 -52 -40 -60 -40 -19 0 -40 24 -40 45 0 8 18 35 40 60 22 25 40 52 40 60 0 8 18 35 40 60 22 25 40 52 40 60 0 8 18 35 40 60 22 25 40 52 40 60 0 8 18 35 40 60 l40 45 -40 0 c-22 0 -47 -5 -55 -10z"/>
</g>
</svg>